<?xml version="1.0" encoding="utf-8"?>
<!-- Generator: Adobe Illustrator 22.0.1, SVG Export Plug-In . SVG Version: 6.00 Build 0)  -->
<svg version="1.1" id="Layer_1" xmlns="http://www.w3.org/2000/svg" xmlns:xlink="http://www.w3.org/1999/xlink" x="0px" y="0px"
	 width="1200px" height="1200px" viewBox="0 0 1200 1200" style="enable-background:new 0 0 1200 1200;" xml:space="preserve">
<style type="text/css">
	.st0{fill:#FFFFFF;}
</style>
<path d="M840.2,399c-24,4-92.5,2-92.5,2l-0.5-248.5l-37,2.5l6,308.5l160-18c0,0-4-36-8-57C867.8,387,868.2,394.5,840.2,399z"/>
<path d="M687.8,435.5h0.5C688.2,434,688.2,434,687.8,435.5z"/>
<path d="M1011.7,151c-15.5-13-39.5-13-43.5-12.5c-49,1-115.5,58.5-99.5,216.5c25.5,121.5,95,120.5,115.5,119.5c0,0,26.5-4.5,44-14
	c24-13,42-39.5,50.5-128.5C1089.2,224.5,1044.7,178,1011.7,151z"/>
<path class="st0" d="M714.6,812.4v0.4C715,812.4,715,812.4,714.6,812.4z"/>
<g>
	<path d="M383.8,409.5l6.5-60.5l77.5-5l-5.5-32h-83l-0.5-129.5l69.5-11.5l4.5-38l-111,22l-5.5,318.5c0,0,166.5-11.5,170-8.5
		l-8.5-55.5H383.8z"/>
	<path d="M624.8,419.5c-18-8-70.5-8.5-70.5-8.5l9-262l-40.5,0.5l-1.5,323l164-2.5l2.5-34.5C684.2,436.5,641.8,427,624.8,419.5z"/>
	<g>
		<polygon points="119.9,561.7 98.9,569.2 116.2,584.4 		"/>
		<polygon points="314.4,890.9 318.1,868.1 297.1,875.6 		"/>
		<polygon points="708.2,729.1 711.9,706.3 690.9,713.8 		"/>
		<polygon points="1079,785.6 1082.7,762.8 1061.7,770.3 		"/>
		<path d="M61.1,527.3v403.4h1050.8V527.3H61.1z M1037.2,605.5c1.1-1.4,6.1-1.6,4.7,0.3c-5.8,7.3,1.8,13.8,8.3,16
			c9,3.1,18.1,0.7,22.6-7.8c3.1-5.8,3.6-13.1-0.6-18.5c-1.2-1.5-2.6-2.7-4.3-3.6c-3.8,0.5-7.6,1-11.5,1.5c-3.2,2.2-4.1,5.1-2.7,8.5
			c1.7,5.2,4,4.8,7-1.3c-3.3-0.5-0.2-3.4,1.9-3.1c5.7,0.8,8.6,6.6,3.9,10.9c-3.7,3.3-9.5,3.3-13.4,0.5
			c-15.2-11.1,7.8-26.4,19.7-19.1c15,9.2,5.6,30.8-8.2,35.6C1054.1,629.1,1025.5,620.3,1037.2,605.5z M801.8,616.1l7.4-19.5
			c0.5-1.4,2.1-2.1,3.5-1.6c1.4,0.5,2.1,2.1,1.6,3.5l-5.7,15.2l17.1-2.7c0.9-0.2,1.9,0.2,2.5,0.9c0.6,0.7,0.8,1.7,0.5,2.6l-5.5,15.4
			l16.5-3.2c1-0.2,1.9,0.2,2.6,0.9c0.6,0.7,0.8,1.8,0.5,2.7l-7.1,19.9c-0.5,1.4-2.1,2.2-3.5,1.6c-0.4-0.2-0.8-0.4-1.1-0.8
			c-0.6-0.7-0.9-1.8-0.5-2.7L836,633l-16.5,3.2c-0.9,0.2-1.9-0.1-2.5-0.9c0,0,0,0,0,0c-0.6-0.7-0.8-1.8-0.5-2.7L822,617l-17.2,2.7
			c-1,0.2-1.9-0.2-2.5-1C801.6,618,801.5,617,801.8,616.1z M720.9,700.9l-6,36.7c-0.2,1.5-1.2,2.7-2.6,3.2c-1.4,0.5-2.9,0.2-4-0.8
			l-27.8-24.5c-0.6-0.5-1-1.1-1.3-1.8c-0.8-2.1,0.3-4.4,2.4-5.2c0,0,0,0,0,0l33.9-12.1c1.3-0.5,2.8-0.2,4,0.7
			C720.6,698,721.2,699.4,720.9,700.9z M676,574.5c1.1-1.4,6.1-1.6,4.7,0.3c-5.8,7.3,1.8,13.8,8.3,16c9,3.1,18.1,0.7,22.6-7.8
			c3.1-5.8,3.6-13.1-0.6-18.5c-1.2-1.5-2.6-2.7-4.3-3.6c-3.8,0.5-7.6,1-11.5,1.5c-3.2,2.2-4.1,5.1-2.7,8.5c1.7,5.2,4,4.8,7-1.3
			c-3.3-0.5-0.2-3.4,1.9-3.1c5.7,0.8,8.6,6.6,3.9,10.9c-3.7,3.3-9.5,3.3-13.4,0.5c-15.2-11.1,7.8-26.4,19.7-19.1
			c15,9.2,5.6,30.8-8.2,35.6C692.9,598.1,664.3,589.3,676,574.5z M408.8,584c0.5-0.8,1.4-1.3,2.5-1.3l16.3,1.1l-7.6-15
			c-0.4-0.9-0.4-1.9,0.1-2.7c0,0,0,0,0,0c0.5-0.8,1.5-1.3,2.4-1.2l16.5,1l-7.3-15.8c-0.4-0.9-0.3-1.9,0.2-2.7
			c0.6-0.8,1.5-1.2,2.5-1.2l20.8,1.7c1.5,0.1,2.6,1.4,2.5,2.9c-0.1,1.5-1.4,2.6-2.9,2.5l-16.1-1.4l7.3,15.7c0.4,0.9,0.3,1.9-0.2,2.7
			c-0.5,0.8-1.5,1.2-2.4,1.2l-16.3-1l7.6,15c0.4,0.9,0.4,1.9-0.2,2.7c-0.5,0.8-1.5,1.3-2.4,1.2l-21-1.4c-1.5-0.1-2.6-1.4-2.5-2.9
			C408.4,584.9,408.5,584.4,408.8,584z M273.8,566.3c1.1-1.4,6.1-1.6,4.7,0.3c-5.8,7.3,1.8,13.8,8.3,16c9,3.1,18.1,0.7,22.6-7.8
			c3.1-5.8,3.6-13.1-0.6-18.5c-1.2-1.5-2.6-2.7-4.3-3.6c-3.8,0.5-7.6,1-11.5,1.5c-3.2,2.2-4.1,5.1-2.7,8.5c1.7,5.2,4,4.8,7-1.3
			c-3.3-0.5-0.2-3.4,1.9-3.1c5.7,0.8,8.6,6.6,3.9,10.9c-3.7,3.3-9.5,3.3-13.4,0.5c-15.2-11.1,7.8-26.4,19.7-19.1
			c15,9.2,5.6,30.8-8.2,35.6C290.7,589.9,262,581.1,273.8,566.3z M89.8,563.9C89.8,563.9,89.8,563.9,89.8,563.9l33.9-12.1
			c1.3-0.5,2.8-0.2,4,0.7c1.1,0.9,1.6,2.3,1.4,3.8l-6,36.7c-0.2,1.5-1.2,2.7-2.6,3.2c-1.4,0.5-2.9,0.2-4-0.8l-27.8-24.5
			c-0.6-0.5-1-1.1-1.3-1.8C86.6,566.9,87.7,564.6,89.8,563.9z M129.8,786.5l-16.1-1.4l7.3,15.7c0.4,0.9,0.3,1.9-0.2,2.7
			c-0.5,0.8-1.5,1.2-2.4,1.2l-16.3-1l7.6,15c0.4,0.9,0.4,1.9-0.2,2.7c-0.5,0.8-1.5,1.3-2.4,1.2l-21-1.4c-1.5-0.1-2.6-1.4-2.5-2.9
			c0-0.5,0.2-0.9,0.4-1.3c0.5-0.8,1.4-1.3,2.5-1.3l16.3,1.1l-7.6-15c-0.4-0.9-0.4-1.9,0.1-2.7c0,0,0,0,0,0c0.5-0.8,1.5-1.3,2.4-1.2
			l16.5,1l-7.3-15.8c-0.4-0.9-0.3-1.9,0.2-2.7c0.6-0.8,1.5-1.2,2.5-1.2l20.8,1.7c1.5,0.1,2.6,1.4,2.5,2.9
			C132.6,785.6,131.3,786.7,129.8,786.5z M327.1,862.7l-6,36.7c-0.2,1.5-1.2,2.7-2.6,3.2c-1.4,0.5-2.9,0.2-4-0.8l-27.8-24.5
			c-0.6-0.5-1-1.1-1.3-1.8c-0.8-2.1,0.3-4.4,2.4-5.2c0,0,0,0,0,0l33.9-12.1c1.3-0.5,2.9-0.2,4,0.7
			C326.8,859.8,327.4,861.3,327.1,862.7z M367.4,762L351,844.8l-13.2,6l-64-149.2l-22.4,149.2l-34.8,7.2c0,0-70.8-137.6-85.2-220.8
			l10.8-24.8l66.4,162l17.6-179.6h31.6L329.4,762l8.4-167.2l46.4,9.2L367.4,762z M394.2,758.8c-12.8-126.4,40.4-172.4,79.6-173.2
			c3.2-0.4,22.4-0.4,34.8,10c26.4,21.6,62,58.8,53.6,144.8c-6.8,71.2-21.2,92.4-40.4,102.8c-14,7.6-35.2,11.2-35.2,11.2
			C470.2,855.2,414.6,856,394.2,758.8z M551.3,909.5c-10.4,3.6-39-5.2-27.3-20c1.1-1.4,6.1-1.6,4.7,0.3c-5.8,7.3,1.8,13.8,8.3,16
			c9,3.1,18.1,0.7,22.6-7.8c3.1-5.8,3.6-13.1-0.6-18.5c-1.2-1.5-2.6-2.7-4.3-3.6c-3.8,0.5-7.6,1-11.5,1.5c-3.2,2.2-4.1,5.1-2.7,8.5
			c1.7,5.2,4,4.8,7-1.3c-3.3-0.5-0.2-3.4,1.9-3.1c5.7,0.8,8.6,6.6,3.9,10.9c-3.7,3.3-9.5,3.3-13.4,0.5
			c-15.2-11.1,7.8-26.4,19.7-19.1C574.5,883,565.1,904.7,551.3,909.5z M701.8,852.8c-31.6,14-50.8-33.6-50.8-33.6l-32-72.8l-5.2-1.2
			l8.8,121.6L597,872l-21.6-304c0,0,30,4.8,60,24.4c11.6,8,38.4,19.6,34.8,72.4c-4,53.2-30.4,62.8-30.4,62.8l33.6,66
			c0,0,9.2,20.4,18,24.4c9.6,4.4,21.6-2.8,23.2-5.2l6.4,33.6L701.8,852.8z M875.8,848l-135.6-8l9.2-248.8l29.6-2v215.2
			c0,0,25.6-3.2,44.4,1.6c13.6,3.6,51.2,13.6,53.2,12.8C876.2,824,875.8,848,875.8,848z M1009.7,861.7l-16.1-1.4l7.3,15.7
			c0.4,0.9,0.3,1.9-0.2,2.7c-0.5,0.8-1.5,1.2-2.4,1.2l-16.3-1l7.6,15c0.4,0.9,0.4,1.9-0.2,2.7c-0.5,0.8-1.5,1.3-2.4,1.2l-21-1.4
			c-1.5-0.1-2.6-1.4-2.5-2.9c0-0.5,0.2-0.9,0.4-1.3c0.5-0.8,1.4-1.3,2.5-1.3l16.3,1.1l-7.6-15c-0.4-0.9-0.4-1.9,0.1-2.7c0,0,0,0,0,0
			c0.5-0.8,1.5-1.3,2.4-1.2l16.5,1l-7.3-15.8c-0.4-0.9-0.3-1.9,0.2-2.7c0.6-0.8,1.5-1.2,2.5-1.2l20.8,1.7c1.5,0.1,2.6,1.4,2.5,2.9
			C1012.5,860.7,1011.2,861.8,1009.7,861.7z M901,850.4l-4.4-260.8c64.4-1.2,134,20.8,143.6,146.8C1049,858,901,850.4,901,850.4z
			 M1091.8,757.4l-6,36.7c-0.2,1.5-1.2,2.7-2.6,3.2s-2.9,0.2-4-0.8l-27.8-24.5c-0.6-0.5-1-1.1-1.3-1.8c-0.8-2.1,0.3-4.4,2.4-5.2
			c0,0,0,0,0,0l33.9-12.1c1.3-0.5,2.8-0.2,3.9,0.7C1091.5,754.5,1092,755.9,1091.8,757.4z"/>
	</g>
	<path d="M305.8,139l-46.5,5v147l-94,13.5c0,0-3,10.5-6-7c-3.5-17,6-170.5,6-170.5H99.8l10,340.5l71.5-11L167.8,327l97-6.5
		c3,39.5,7.5,131,7.5,131h29.5l-2.5-126c0,0,5.5-85,6.5-93.5C306.8,223,305.8,139,305.8,139z M160.8,441c-0.5,1.4-2.1,2.2-3.5,1.7
		l-19.9-7c-0.9-0.3-1.6-1.1-1.8-2.1c-0.2-1,0.2-1.9,0.9-2.6l12.8-10.8l-15.4-5.5c-0.9-0.3-1.6-1.1-1.8-2c-0.2-0.9,0.1-1.9,0.8-2.6
		l12.8-11.6l-15.4-5.1c-1.3-0.4-2.1-1.8-1.8-3.1c-0.1-0.3-0.2-0.6-0.2-0.9c-0.1-1,0.4-1.9,1.2-2.5l13.7-8.9l-15-7.5
		c-0.9-0.4-1.4-1.3-1.5-2.2c0,0,0,0,0,0c-0.1-1,0.4-1.9,1.2-2.4l13.1-8.5l-15.5-7c-0.9-0.4-1.5-1.2-1.6-2.2c-0.1-1,0.3-1.9,1.1-2.5
		l0,0c0.1-0.7,0.6-1.4,1.2-1.8l10.9-6.8l1.5-1.1l-14.9-6.7c-0.9-0.4-1.5-1.2-1.6-2.2c-0.1-1,0.3-1.9,1.1-2.5l13.8-10.4l-14.9-6.4
		c-1.3-0.5-1.9-1.9-1.5-3.2c-0.1-0.3-0.2-0.6-0.2-0.9c0-1,0.5-1.9,1.4-2.4l14.4-7.7l-14.3-8.7c-0.8-0.5-1.3-1.4-1.3-2.4c0,0,0,0,0,0
		c0-1,0.6-1.9,1.4-2.3l14.6-7.8l-14.6-9.5c-0.8-0.5-1.3-1.5-1.2-2.4c0.1-1,0.6-1.8,1.5-2.3l14.4-7.4l-14.6-6.6
		c-0.9-0.4-1.5-1.2-1.6-2.2c-0.1-1,0.3-1.9,1.1-2.5l13.7-9.7l-14.9-6.7c-0.9-0.4-1.5-1.2-1.6-2.2c-0.1-1,0.3-1.9,1.1-2.5L134,208
		l-14.9-6.4c-1.3-0.5-1.9-1.9-1.5-3.2c-0.1-0.3-0.2-0.6-0.2-0.9c0-1,0.5-1.9,1.4-2.4l14.4-7.7l-14.3-8.7c-0.8-0.5-1.3-1.4-1.3-2.4
		c0,0,0,0,0,0c0-1,0.6-1.9,1.4-2.3l14.6-7.8l-14.6-9.5c-0.8-0.5-1.3-1.5-1.2-2.4c0.1-1,0.6-1.8,1.5-2.3l18.6-9.5
		c1.3-0.7,3-0.2,3.7,1.2c0.7,1.3,0.2,3-1.2,3.7l-14.4,7.4l14.5,9.5c0.8,0.5,1.3,1.4,1.2,2.4c0,1-0.6,1.8-1.4,2.3l-14.4,7.8l14.3,8.7
		c0.8,0.5,1.3,1.4,1.3,2.4c0,1-0.6,1.9-1.4,2.3l-15.3,8.2l15.7,6.7c0.9,0.4,1.5,1.2,1.6,2.2c0.1,1-0.3,1.9-1.1,2.5l-13.9,10.5
		l15.1,6.8c0.9,0.4,1.5,1.2,1.6,2.2c0,0,0,0,0,0c0.1,1-0.4,1.9-1.1,2.4l-13.7,9.7l14.9,6.7c0.9,0.4,1.5,1.3,1.6,2.3
		c0,0.4,0,0.9-0.2,1.3c-0.1,0.1-0.1,0.2-0.2,0.3c-0.2,0.7-0.7,1.3-1.4,1.6l-14.4,7.4l14.5,9.5c0.8,0.5,1.3,1.4,1.2,2.4
		c0,1-0.6,1.8-1.4,2.3l-14.4,7.8l14.3,8.7c0.8,0.5,1.3,1.4,1.3,2.4c0,1-0.6,1.9-1.4,2.3l-15.3,8.2l15.7,6.7c0.9,0.4,1.5,1.2,1.6,2.2
		c0.1,1-0.3,1.9-1.1,2.5l-13.9,10.5l14.2,6.4c1.2-0.5,2.6,0,3.3,1.1c0.8,1.3,0.4,3-0.9,3.7l-6.7,4.2l-6.6,4.7l14.7,7.9
		c0.8,0.5,1.4,1.3,1.4,2.3c0,1-0.4,1.9-1.2,2.4l-13.7,8.9l15,7.5c0.9,0.4,1.4,1.3,1.5,2.3c0.1,1-0.4,1.9-1.2,2.4l-14.5,9.4l16.2,5.4
		c0.9,0.3,1.6,1.1,1.8,2c0.2,0.9-0.1,1.9-0.8,2.6l-12.9,11.6l15.6,5.5c0.9,0.3,1.6,1.1,1.8,2.1c0,0,0,0,0,0c0.2,0.9-0.2,1.9-0.9,2.5
		l-12.8,10.8l15.4,5.4c1,0.3,1.6,1.2,1.8,2.1C161,440.1,161,440.5,160.8,441z"/>
</g>
</svg>
